<svg width="330" height="710" viewBox="0 0 330 710" fill="none" xmlns="http://www.w3.org/2000/svg">
<path d="M247.963 165.986L187.681 159.16L238.973 489.892C229.083 504.023 202.74 516.648 177.389 524.61C174.059 415.168 169.95 274.829 152.073 180.297C151.459 180.757 150.776 181.645 149.93 181.757C147.448 182.09 144.652 180.214 144.027 178.001C143.045 174.503 145.778 172.258 147.586 171.52C147.922 173.915 148.463 176.854 148.476 176.937C148.561 177.541 148.341 177.62 148.993 177.62C149.048 177.62 149.358 177.498 149.413 177.492C150.13 177.409 150.497 177.47 150.07 176.937C149.681 176.45 149.741 175.14 149.413 172.757C149.663 172.802 150.582 172.55 150.818 172.629C150.46 170.804 149.985 169.602 149.62 167.815L125.997 182.611L117.567 187.727C119.502 271.291 123.441 398.838 111.882 483.478C111.724 509.784 111.584 526.246 111.584 526.246C109.118 526.445 104.207 526.701 101.705 526.828C72.6707 540.48 62.7431 535.189 52.2991 524.018C35.213 521.306 18.8704 516.776 4.62012 510.37L28.2259 206.769L12.3017 133.564C12.3017 121.93 18.2071 110.957 28.2927 103.831L73.3718 79.634C73.3718 79.634 99.2213 107.964 107.092 117.856C107.335 118.166 107.566 118.847 107.791 119.88L122.077 122.636L137.04 117.811C131.847 101.47 126.235 88.6825 120.203 80.4817L177.716 94.9041L177.734 95.0318L190.615 100.544L208.905 94.6486L216.496 111.961L225.486 115.471L262.579 76.728L289.414 93.9124L247.963 165.986Z" fill="#E9EAF7"/>
<path d="M149.856 181.068C147.374 181.402 145.066 179.837 144.701 177.582C144.398 175.702 145.542 173.954 147.35 173.218C147.684 175.612 147.88 177.042 147.891 177.125C147.975 177.73 148.543 178.174 149.193 178.174C149.249 178.174 149.304 178.168 149.358 178.164C150.077 178.08 150.589 177.48 150.497 176.827C150.484 176.744 150.284 175.312 149.954 172.917C151.835 173.211 153.393 174.558 153.685 176.371C154.05 178.634 152.334 180.735 149.856 181.068ZM158.257 177.042C157.611 173.033 153.867 170.168 149.565 170.095C149.467 169.391 149.364 168.637 149.255 167.85L146.764 168.991C146.831 169.484 146.898 169.963 146.965 170.417C142.7 171.514 139.869 175.318 140.532 179.421C141.257 183.88 145.809 186.963 150.702 186.304C155.597 185.649 158.98 181.502 158.257 177.042ZM103.201 37.6079C103.384 37.7194 103.611 37.7802 103.835 37.7802C104.212 37.7802 104.566 37.6079 104.779 37.324C104.948 37.0968 105.011 36.821 104.948 36.5493C104.895 36.2776 104.717 36.0444 104.461 35.8821C104.267 35.7665 102.429 34.7141 99.7621 34.7141C97.8522 34.7141 95.958 35.2393 94.1461 36.2816C93.8901 36.4317 93.7076 36.6588 93.6453 36.9305C93.5785 37.1982 93.6274 37.4801 93.7922 37.7072C93.9992 38.0114 94.3576 38.196 94.7538 38.196C94.9675 38.196 95.1745 38.1392 95.357 38.0337C96.7994 37.2084 98.2907 36.7866 99.7821 36.7866C101.832 36.7866 103.183 37.5957 103.201 37.6079ZM112.855 50.4323C112.679 50.483 112.448 50.5053 112.18 50.5053C111.693 50.5053 111.139 50.4222 110.811 50.339C110.707 50.3167 110.604 50.3005 110.5 50.3005C109.995 50.3005 109.545 50.6108 109.411 51.0589C109.24 51.6085 109.594 52.1803 110.195 52.3345C110.348 52.373 111.177 52.5798 112.149 52.5798C113.142 52.5798 113.939 52.3689 114.529 51.9532C115.156 51.503 116.336 50.6655 111.395 41.1952C111.205 40.8343 110.805 40.601 110.366 40.601C110.195 40.601 110.032 40.6355 109.879 40.7024C109.605 40.8241 109.398 41.0289 109.296 41.2885C109.198 41.5501 109.209 41.832 109.345 42.0834C111.205 45.6586 112.728 49.2845 112.855 50.4323ZM118.834 31.6519C116.922 31.6519 115.034 32.1792 113.215 33.2215C112.686 33.5257 112.528 34.1706 112.862 34.6512C113.075 34.9513 113.427 35.1338 113.823 35.1338C114.037 35.1338 114.251 35.0791 114.433 34.9736C115.875 34.1483 117.367 33.7265 118.858 33.7265C120.908 33.7265 122.253 34.5356 122.273 34.5457C122.46 34.6573 122.68 34.7242 122.905 34.7242C123.283 34.7242 123.635 34.5518 123.849 34.2639C124.018 34.0367 124.08 33.7589 124.024 33.4872C123.964 33.2154 123.793 32.9782 123.537 32.822C123.343 32.7064 121.529 31.6519 118.834 31.6519ZM119.898 39.1815C119.782 39.1815 119.662 39.1937 119.546 39.2099C118.444 39.3884 117.701 40.3516 117.897 41.3615C118.066 42.2436 118.905 42.8926 119.891 42.8926C120.013 42.8926 120.129 42.8804 120.252 42.8581C121.353 42.6817 122.095 41.7225 121.901 40.7126C121.73 39.8264 120.884 39.1815 119.898 39.1815ZM100.267 42.3329C100.152 42.3329 100.031 42.343 99.9156 42.3653C99.3792 42.4485 98.9118 42.7202 98.6001 43.1258C98.2907 43.5293 98.1683 44.0241 98.2663 44.5108C98.4354 45.393 99.2768 46.0419 100.263 46.0419C100.379 46.0419 100.499 46.0297 100.615 46.0074C101.723 45.831 102.46 44.8718 102.264 43.8619C102.095 42.9798 101.253 42.3329 100.267 42.3329ZM295.653 41.6495C295.464 41.6495 295.282 41.688 295.117 41.7711L289.632 44.4622C289.085 44.7339 288.878 45.3605 289.176 45.8634C289.372 46.196 289.755 46.4069 290.175 46.4069C290.365 46.4069 290.547 46.3623 290.716 46.2852L296.194 43.5962C296.749 43.3245 296.949 42.6979 296.657 42.1929C296.457 41.8543 296.074 41.6495 295.653 41.6495ZM264.569 78.6627L262.59 73.3232C262.432 72.9014 262.007 72.6236 261.519 72.6236C261.397 72.6236 261.27 72.6419 261.154 72.6743C260.557 72.8568 260.235 73.4449 260.442 73.9884L262.372 79.196C262.541 79.9828 262.182 80.7818 261.463 81.2361C259.351 82.5786 255.529 85.0222 253.673 86.2653C253.343 86.4863 253.034 86.5918 252.722 86.5918C252.638 86.5918 252.56 86.5816 252.473 86.5695C251.841 86.46 251.238 85.9489 250.89 85.6001C252.845 84.5456 256.259 81.5971 258.841 79.2447C260.077 78.1131 260.471 76.4178 259.856 74.9151L258.08 70.6058C257.915 70.2003 257.49 69.9346 257.014 69.9346C256.88 69.9346 256.747 69.9569 256.62 70.0015C256.333 70.0968 256.108 70.2895 255.979 70.5389C255.859 70.7944 255.845 71.0783 255.954 71.3318L257.726 75.6472C258.038 76.3894 257.835 77.2208 257.227 77.7805C253.479 81.1915 250.49 83.5641 249.419 83.9636C249.346 83.9981 249.29 84.0082 249.23 84.0082C249.205 84.0082 249.181 84.0021 249.15 84.0021C248.869 83.8419 248.571 83.1606 248.408 82.323L253.606 77.4865C254.67 76.4949 255.115 75.0916 254.786 73.7389L253.63 68.9531C253.515 68.4765 253.058 68.144 252.522 68.144C252.444 68.144 252.357 68.1501 252.279 68.1663C251.981 68.2271 251.725 68.3873 251.56 68.6205C251.396 68.8537 251.347 69.1316 251.409 69.4033L252.564 74.1831C252.729 74.8543 252.511 75.5458 251.981 76.0345L247.591 80.1208C246.679 77.8819 249.771 74.0776 249.904 73.9052C250.178 73.5889 250.223 73.1448 250.016 72.7899L248.749 70.6119C248.553 70.2733 248.164 70.0624 247.745 70.0624C247.563 70.0624 247.38 70.1009 247.215 70.18C246.661 70.4517 246.447 71.0783 246.739 71.5813L247.678 73.1894C246.563 74.6657 243.654 79.0683 246.047 81.7857C246.082 82.2886 246.332 84.8336 247.945 85.7542C248.086 85.8333 248.23 85.8982 248.377 85.9489C248.402 86.0037 248.433 86.0544 248.462 86.099C248.609 86.32 249.947 88.2283 252.034 88.5994C252.261 88.6379 252.493 88.6602 252.718 88.6602C253.515 88.6602 254.312 88.4047 255.024 87.9282C256.357 87.0359 258.888 85.3994 262.766 82.9334C264.246 81.9945 264.94 80.3763 264.569 78.6627ZM325.97 14.3134C325.759 14.1126 325.472 14.0031 325.162 13.997C324.541 13.997 324.029 14.4634 324.023 15.0292C323.956 20.7905 323.816 29.7781 323.7 30.8975C323.366 34.1037 320.993 38.7212 320.719 39.2444C320.443 39.7595 320.682 40.38 321.247 40.6294C321.4 40.6964 321.565 40.7288 321.741 40.7288C322.173 40.7288 322.576 40.5017 322.763 40.1468C322.878 39.9359 325.57 34.8459 325.966 31.0922C326.124 29.5612 326.282 16.5319 326.293 15.0495C326.3 14.7676 326.184 14.506 325.97 14.3134ZM318.66 30.8367C318.618 30.2993 318.126 29.8714 317.456 29.8714C317.449 29.8714 317.449 29.8714 317.449 29.8714C316.822 29.912 316.348 30.4108 316.39 30.9766C316.414 31.2585 316.439 31.5749 316.463 31.9135C316.256 31.7574 316.014 31.6641 315.744 31.6641C315.435 31.6641 315.143 31.7797 314.923 31.9784L311.132 35.5678C310.701 35.9774 310.712 36.6324 311.161 37.0299C311.375 37.2145 311.655 37.3199 311.954 37.3199C312.263 37.3199 312.557 37.2084 312.768 37.0035L316.561 33.4162C316.568 33.4162 316.568 33.4101 316.572 33.404C316.775 36.1721 317 39.4533 317 40.0981C316.958 40.6294 315.264 43.4969 313.378 46.2305C313.042 46.7131 313.207 47.3499 313.737 47.6561C313.913 47.7595 314.126 47.8163 314.34 47.8163C314.736 47.8163 315.094 47.6338 315.301 47.3276C316.786 45.176 319.27 41.3838 319.27 40.1245C319.27 39.1815 318.899 34.0428 318.674 31.0598L318.66 30.8367ZM265.737 75.4464C265.724 75.4464 265.713 75.4464 265.699 75.4464C265.401 75.4911 265.134 75.635 264.958 75.8581C264.776 76.0791 264.702 76.3509 264.744 76.6287L265.285 79.8267C264.264 83.4769 262.986 86.9203 262.358 87.7396C261.969 87.6564 261.348 87.2143 260.976 86.8148C260.764 86.5816 260.442 86.4478 260.106 86.4478C259.838 86.4478 259.582 86.5309 259.382 86.6871C258.901 87.0521 258.835 87.7071 259.235 88.1451C259.393 88.3175 260.818 89.8242 262.487 89.8242C262.663 89.8242 262.846 89.808 263.028 89.7695C263.656 89.6417 264.976 89.3761 267.531 80.1816C267.569 80.0538 267.576 79.9159 267.556 79.778L266.99 76.3225C266.912 75.8236 266.443 75.4464 265.737 75.4464ZM33.1917 166.019C33.3142 166.075 33.4366 166.098 33.5635 166.098C33.8929 166.098 34.209 165.931 34.3559 165.637C34.5607 165.238 34.3737 164.765 33.9352 164.577C13.6839 155.972 16.8803 129.654 16.9159 129.389C16.9715 128.951 16.631 128.557 16.1502 128.502C15.6805 128.452 15.2353 128.756 15.1819 129.2C15.1396 129.478 11.7918 156.925 33.1917 166.019ZM109.946 514.695C51.8961 517.458 13.8241 500.113 13.4479 499.934C13.0139 499.736 12.4908 499.892 12.2726 500.285C12.0523 500.673 12.2237 501.155 12.6488 501.354C13.0027 501.52 46.0108 516.588 97.4249 516.588C101.509 516.588 105.723 516.492 110.037 516.287C110.518 516.265 110.889 515.894 110.865 515.45C110.84 515.012 110.451 514.647 109.946 514.695ZM42.4693 108.223L103.913 120.001C103.976 120.012 104.036 120.018 104.096 120.018C104.499 120.018 104.864 119.762 104.948 119.385C105.046 118.959 104.741 118.531 104.274 118.444L70.7117 112.011C68.3745 104.352 66.291 96.8894 66.2977 94.7602C66.34 85.6488 74.1619 77.9205 74.2353 77.8414C74.7339 77.3608 74.705 76.6064 74.1752 76.1501C73.6454 75.702 72.8174 75.7303 72.3232 76.213C71.9716 76.5496 63.7223 84.6855 63.6756 94.75C63.6689 97.0679 65.6411 104.243 67.8202 111.456L42.8277 106.67C42.3469 106.565 41.8906 106.855 41.7927 107.28C41.6947 107.712 41.993 108.134 42.4693 108.223ZM30.2157 329.459C29.8818 333.059 46.9056 336.857 59.1036 338.402C60.5816 338.779 62.0195 338.613 63.2415 337.97C64.4725 337.321 65.3428 336.273 65.6834 335.02L70.9721 318.18L35.1951 309.79C34.2446 312.824 30.6965 324.395 30.2157 329.459ZM34.8122 308.055L72.2743 316.839C72.5058 316.894 72.7017 317.032 72.8174 317.221C72.9332 317.403 72.9621 317.626 72.902 317.831L67.3751 335.431C66.9187 337.084 65.7635 338.481 64.1185 339.351C63.0479 339.911 61.8615 340.199 60.655 340.199C60.0162 340.199 59.3774 340.122 58.7452 339.962C53.6857 339.323 27.8718 335.725 28.475 329.321C29.0404 323.337 33.5635 309.198 33.7527 308.598C33.8862 308.188 34.3425 307.945 34.8122 308.055ZM29.9731 333.119C29.5168 333.069 29.0716 333.418 29.036 333.856C28.5663 340.022 26.2959 370.93 28.0365 373.57C29.8084 376.265 42.4738 379.658 44.9646 380.301L66.3957 386.579C66.9187 386.733 67.4552 386.806 67.985 386.806C69.0133 386.806 70.0283 386.522 70.9053 385.979C72.232 385.147 73.0489 383.833 73.1446 382.369C73.1758 381.931 72.8107 381.554 72.3299 381.527C71.7935 381.477 71.4284 381.838 71.404 382.276C71.3372 383.245 70.7963 384.117 69.9126 384.665C69.0378 385.214 67.9471 385.364 66.9321 385.064L45.4699 378.776C39.894 377.334 30.6364 374.424 29.5346 372.761C28.4261 370.842 29.7104 347.945 30.7811 333.967C30.8122 333.529 30.4539 333.146 29.9731 333.119ZM73.5586 376.147L76.3299 334.188C76.3544 333.878 76.3344 333.568 76.2987 333.296L74.7584 318.435C74.7094 317.997 74.2665 317.697 73.8035 317.716C73.3227 317.758 72.9688 318.147 73.0177 318.585L74.5581 333.478C74.5892 333.679 74.6004 333.89 74.5892 334.095L71.8135 376.048C71.7824 376.492 72.1541 376.869 72.6349 376.896C72.6527 376.896 72.6705 376.896 72.6839 376.896C73.1446 376.896 73.5297 376.569 73.5586 376.147ZM41.8661 169.34C42.3959 169.369 48.3658 170.2 56.8576 171.399C48.7375 175.035 45.067 180.504 44.8978 180.763C44.6485 181.141 44.7821 181.629 45.1961 181.856C45.3363 181.933 45.4943 181.966 45.6457 181.966C45.9373 181.966 46.2311 181.834 46.3936 181.585C46.4359 181.518 50.723 175.174 60.0652 171.853C74.9721 173.966 95.7265 176.943 109.204 178.89C109.672 178.95 110.128 178.656 110.202 178.224C110.275 177.79 109.952 177.381 109.478 177.314C102.544 176.316 78.3265 172.828 60.8576 170.356C60.6261 170.149 60.2788 170.078 59.9561 170.19C59.9249 170.194 59.9004 170.206 59.8715 170.212C49.8749 168.797 42.3113 167.75 41.8973 167.75C41.4276 167.75 41.0559 168.087 41.0381 168.521C41.0269 168.947 41.3964 169.314 41.8661 169.34ZM185.86 509.301C185.963 509.656 186.323 509.889 186.706 509.889C186.78 509.889 186.858 509.877 186.931 509.867C225.686 500.395 234.646 481.026 235.004 480.205C235.186 479.801 234.968 479.341 234.523 479.175C234.074 479.002 233.562 479.203 233.386 479.613C233.301 479.808 224.317 499.081 186.481 508.324C186.012 508.441 185.738 508.873 185.86 509.301ZM122.333 123.461C121.954 123.183 121.402 123.25 121.104 123.599C120.982 123.739 109.022 138.001 117.402 150.11C117.567 150.349 117.852 150.483 118.146 150.483C118.304 150.483 118.462 150.444 118.607 150.361C119.016 150.122 119.143 149.633 118.883 149.262C111.163 138.1 122.368 124.708 122.484 124.576C122.782 124.226 122.711 123.727 122.333 123.461ZM222.381 132.471L152.396 165.449C151.969 165.647 151.799 166.13 152.024 166.517C152.176 166.795 152.481 166.951 152.797 166.951C152.937 166.951 153.07 166.923 153.2 166.862L223.823 133.586C224.195 133.41 224.377 133.014 224.262 132.649L218.644 115.244C218.51 114.822 218.016 114.583 217.559 114.707C217.092 114.832 216.829 115.27 216.963 115.692L222.381 132.471ZM143.43 116.092C143.528 116.092 143.624 116.081 143.715 116.053L189.938 101.675C190.394 101.531 190.639 101.075 190.486 100.665C190.328 100.244 189.822 100.029 189.373 100.167L143.15 114.544C142.693 114.684 142.448 115.139 142.602 115.554C142.729 115.887 143.069 116.092 143.43 116.092ZM123.604 77.1215C123.052 76.6997 122.224 76.7666 121.761 77.2776C121.298 77.7866 121.371 78.5349 121.925 78.9628C122.07 79.0683 135.973 89.7979 138.195 106.455C138.553 109.172 139.047 112.804 139.613 116.984L142.146 116.169C141.609 112.21 141.142 108.767 140.795 106.167C138.457 88.5771 124.214 77.5818 123.604 77.1215ZM105.618 183.065L105.91 183.609L106.689 185.038L106.97 185.559C107.359 186.275 108.278 186.614 109.1 186.348L115.833 184.158C116.806 183.842 117.255 182.822 116.799 181.978L114.925 178.518L111.286 178.062L106.226 181.041C105.492 181.479 105.229 182.343 105.618 183.065ZM83.2191 193.839C84.0649 193.622 84.5947 192.868 84.4612 192.075L84.3632 191.499L84.0894 189.923L83.987 189.325C83.8468 188.538 83.0789 187.966 82.2019 187.999L75.0634 188.267C74.035 188.305 73.267 189.153 73.4318 190.086L74.1685 194.322C74.3266 195.253 75.3438 195.847 76.3344 195.591L83.2191 193.839ZM51.7692 523.906L45.9084 673.111L57.167 673.695L56.2433 679.294C56.2433 679.294 -12.0388 708.206 1.86872 709.637C15.7718 711.067 79.6888 700.017 79.6888 700.017L81.3204 678.807L78.2531 676.151L78.2397 674.204L82.4289 674.421L101.656 526.828C85.1178 527.506 68.1051 526.54 51.7692 523.906ZM200.024 682.877L198.771 676.183L210.031 676.765L193.798 518.81C190.601 519.964 187.303 521.079 183.895 522.148C181.642 448.195 176.066 361.261 167.174 283.48H112.167C112.423 339.923 112.278 400.419 112.071 446.903L129.807 366.411L150.192 483.129L173.809 673.222L177.996 673.439L177.649 677.449L174.795 679.799L178.252 701.27C178.252 701.27 249.764 709.676 263.607 709.676C277.454 709.676 200.024 682.877 200.024 682.877ZM67.4841 23.295C67.1747 21.9322 67.9649 20.5573 69.3717 20.0138L70.6071 19.5373C66.1285 12.7985 83.4862 2.55765 111.96 0.101867C127.372 -1.22438 137.264 10.6652 128.87 20.2896C132.583 28.9406 127.274 44.6061 127.274 44.6061C124.238 33.9759 123.252 28.9792 122.782 24.1548C110.945 25.4466 93.5184 27.1338 89.7633 27.3548C88.844 32.5016 82.8897 47.6662 81.6966 48.2989L76.7439 45.1212C74.8497 46.1311 72.4279 45.1435 71.9827 43.1866L67.4841 23.295Z" fill="#15253D"/>
<path d="M326.032 15.0455C326.037 14.6075 325.647 14.2465 325.167 14.2404H325.162C324.681 14.2404 324.292 14.5892 324.285 15.0293C324.229 20.0017 324.085 29.7173 323.962 30.9138C323.608 34.3146 320.98 39.2992 320.955 39.3478C320.741 39.7473 320.924 40.2239 321.358 40.4125C321.485 40.4693 321.612 40.4916 321.741 40.4916C322.064 40.4916 322.38 40.3293 322.527 40.0414C322.642 39.8305 325.32 34.7526 325.703 31.07C325.868 29.5004 326.026 15.6336 326.032 15.0455ZM319.007 40.1245C319.007 38.9544 318.424 31.1815 318.4 30.853C318.362 30.4149 317.948 30.0783 317.467 30.1108C316.982 30.1432 316.621 30.5204 316.652 30.9645C316.866 33.7427 317.26 39.2322 317.26 40.1144C317.207 40.7633 315.319 43.8619 313.596 46.3583C313.34 46.7294 313.469 47.2181 313.877 47.4554C314.024 47.5324 314.182 47.577 314.34 47.577C314.631 47.577 314.912 47.4452 315.081 47.1999C316.263 45.4924 319.007 41.3676 319.007 40.1245ZM296.426 42.3045C296.194 41.9152 295.664 41.7773 295.239 41.9821L289.761 44.6711C289.334 44.8779 289.176 45.3606 289.407 45.7479C289.565 46.0135 289.864 46.1697 290.175 46.1697C290.315 46.1697 290.46 46.1352 290.589 46.0744L296.067 43.3854C296.492 43.1745 296.65 42.6918 296.426 42.3045ZM264.319 78.7398L264.032 77.9651L263.892 77.592L263.863 77.5149L262.34 73.4003C262.189 72.9846 261.701 72.7636 261.232 72.9015C260.775 73.0393 260.533 73.4956 260.684 73.9113L262.632 79.1514C262.814 80.0275 262.418 80.9198 261.617 81.4308C259.01 83.0815 255.547 85.3 253.83 86.4539C253.363 86.7763 252.9 86.8858 252.424 86.8027C251.64 86.6648 250.91 86.0159 250.483 85.5332C252.332 84.6511 255.907 81.5788 258.652 79.0723C259.814 78.0138 260.192 76.4117 259.607 75.0024L257.835 70.689C257.666 70.2794 257.16 70.0685 256.711 70.2226C256.259 70.3787 256.027 70.8391 256.199 71.2487L257.975 75.5641C258.316 76.3894 258.098 77.3263 257.416 77.9469C253.588 81.4349 250.634 83.769 249.521 84.1867C249.198 84.3084 249.076 84.2354 249.009 84.2029C248.571 83.9535 248.268 83.0268 248.128 82.246L253.423 77.3202C254.42 76.3834 254.834 75.0652 254.532 73.7897L253.374 69.0038C253.272 68.582 252.813 68.3042 252.332 68.3995C251.865 68.4928 251.56 68.9207 251.669 69.3465L252.82 74.1263C253.002 74.8807 252.76 75.6574 252.17 76.2069L247.513 80.5365C246.051 78.176 249.661 73.812 249.697 73.7613C249.911 73.5118 249.942 73.1793 249.784 72.9015L248.517 70.7235C248.292 70.3341 247.763 70.1902 247.335 70.395C246.91 70.5998 246.745 71.0784 246.97 71.4718L247.981 73.2077C246.917 74.5866 243.91 78.9852 246.307 81.7674C246.307 81.7674 246.307 81.7674 246.307 81.7735C246.345 82.2501 246.581 84.6957 248.085 85.5555C248.226 85.6285 248.388 85.7056 248.584 85.7604C248.608 85.8374 248.64 85.9104 248.686 85.9773C248.827 86.1882 250.111 88.0174 252.09 88.3662C252.297 88.4047 252.511 88.423 252.718 88.423C253.459 88.423 254.189 88.1898 254.866 87.7396C256.571 86.5918 260.021 84.3854 262.614 82.7388C263.983 81.8729 264.666 80.3438 264.319 78.7398ZM327.826 35.6003C327.826 35.6003 314.905 50.2782 308.161 55.567C301.416 60.8578 289.614 73.6558 289.614 73.6558L280.557 88.5061L278.293 87.0582L267.282 80.0376C267.295 79.9707 267.302 79.8997 267.295 79.8328C267.295 79.8227 267.295 79.8227 267.295 79.8105L266.734 76.357C266.661 75.923 266.218 75.6188 265.744 75.6858C265.646 75.6959 265.565 75.7344 265.481 75.7689C265.414 75.8013 265.358 75.846 265.298 75.8906C265.281 75.9068 265.256 75.919 265.238 75.9352C265.194 75.9798 265.165 76.0244 265.127 76.067C265.102 76.1076 265.085 76.1501 265.06 76.1948C265.049 76.2292 265.031 76.2678 265.018 76.3063C265 76.3955 264.987 76.4949 265.007 76.5882L265.358 78.7682L265.365 78.8128L265.541 79.8876C264.593 83.26 263.235 87.0866 262.529 87.9241C262.305 87.8795 262.029 87.8187 261.737 87.7234C261.379 87.5125 261.02 87.2306 260.775 86.969C260.593 86.7703 260.326 86.6871 260.056 86.6973C259.662 86.243 259.424 85.6285 259.547 84.791C259.547 84.791 254.627 89.1429 251.255 93.7503C247.883 98.3597 247.745 101.819 242.405 102.839C238.645 103.559 225.248 110.701 217.668 114.861L209.902 96.9503L221.047 91.5764L231.164 72.2464L247.605 65.4651C247.605 65.4651 250.556 65.3374 252.103 67.3835C252.103 67.3835 254.349 67.2578 256.034 69.1762C256.034 69.1762 260.673 71.0986 261.232 72.3742C261.232 72.3742 264.604 73.4003 265.305 75.1909C265.33 75.2477 265.341 75.3147 265.358 75.3694L273.692 63.419C273.692 63.419 276.127 52.6671 282.87 47.5446C289.614 42.4262 294.106 34.7465 296.17 34.7465C298.229 34.7465 301.977 34.9189 296.92 42.2538C296.92 42.2538 309.087 38.3623 311.083 36.3263C311.094 36.5209 311.181 36.7095 311.344 36.8596C311.515 37.0036 311.733 37.0806 311.953 37.0806C312.178 37.0806 312.41 36.9975 312.579 36.8373L316.379 33.2499C316.712 32.9336 316.701 32.4347 316.354 32.1245C316.007 31.8243 315.453 31.8304 315.119 32.1468L311.388 35.6733C311.673 33.3716 309.062 25.2702 312.842 22.9746L317.151 30.1391C317.151 30.1391 319.025 29.2854 320.145 24.676C321.271 20.0686 319.208 15.9763 322.958 14.9502C322.958 14.9502 325.394 12.2166 328.387 12.5613C331.388 12.904 327.826 35.6003 327.826 35.6003ZM75.2455 81.6904L75.2634 79.0906C74.6557 79.3015 74.0703 79.5286 73.5049 79.772C73.7408 80.0437 74.3507 80.7089 75.2455 81.6904ZM138.268 349.399C138.749 349.399 139.145 349.045 139.145 348.6V309.663C139.145 309.219 138.749 308.864 138.268 308.864C137.78 308.864 137.391 309.219 137.391 309.663V347.807H124.652C124.171 347.807 123.775 348.162 123.775 348.6C123.775 349.045 124.171 349.399 124.652 349.399H138.268ZM139.928 287.046H122.649V294.569H139.928V287.046ZM168.402 294.569C168.458 295.102 168.518 295.63 168.58 296.161H112.216C112.216 295.63 112.211 295.096 112.211 294.569H120.897V287.046H112.18C112.18 286.512 112.173 285.981 112.173 285.454H167.392C167.447 285.981 167.507 286.518 167.57 287.046H141.676V294.569H168.402ZM137.124 118.099C132.843 104.598 128.28 93.5009 123.434 85.4055C122.448 83.7588 121.449 82.2237 120.44 80.8265C120.349 80.8042 120.245 80.7819 120.153 80.7636L121.371 84.6511L96.8836 75.6918C108.383 76.3671 126.611 74.177 130.319 70.0746C135.566 64.2687 130.088 45.4985 130.088 45.4985C119.606 51.7647 94.4196 49.1629 88.2404 48.4085C84.5588 41.9821 82.1414 38.8672 82.019 38.7435C81.7029 38.417 79.8955 38.8104 79.5371 39.0984C79.1721 39.3924 78.5443 40.7248 78.8604 41.0513C78.8916 41.0797 81.3023 43.8782 85.3067 51.0103C83.566 54.9748 83.408 59.5883 84.0824 63.7353C81.9277 60.9916 79.1832 57.4428 77.0352 54.9363C76.7369 54.5916 75.5305 55.0417 75.1543 55.3135C74.7759 55.5791 75.1899 57.6638 75.4882 58.0086C81.0641 64.4958 83.8331 67.3186 85.2711 68.5273C85.9277 70.4517 86.7313 72.1085 87.566 73.307C88.276 74.3372 90.5954 75.0307 93.803 75.4242L76.8816 83.4932C84.2226 91.5885 101.01 110.215 107.092 117.856C107.334 118.16 107.566 118.854 107.786 119.874L122.034 123.135L137.124 118.099ZM97.5158 185.732C99.0316 183.807 99.8486 180.52 100.22 176.687L98.4841 176.472C98.0945 180.936 97.1329 184.446 95.2276 185.62C95.0517 185.726 94.8803 185.821 94.7045 185.926C94.4975 185.932 94.3038 185.943 94.0834 185.949C94.0656 185.949 94.0411 185.949 94.0233 185.949C90.5531 185.949 85.4825 180.552 80.8014 174.276L78.4353 173.982C82.8426 180.054 88.0022 185.898 92.2827 187.247C88.3562 189.191 85.3868 189.763 84.0891 189.923L84.3629 191.499C86.1102 191.288 90.1035 190.479 95.252 187.5C101.344 187.224 105.126 185.782 106.689 185.038L105.91 183.609C104.759 184.158 101.979 185.261 97.5158 185.732ZM160.576 360.887H137.938C137.938 360.887 137.938 360.887 137.932 360.887H124.639H124.634H112.303C112.303 361.421 112.296 361.952 112.296 362.479H120.525L112.296 365.807C112.296 366.389 112.296 366.971 112.296 367.553L124.841 362.479H137.738L159.207 371.157C159.323 371.201 159.436 371.23 159.559 371.23C159.895 371.23 160.211 371.051 160.356 370.753C160.551 370.348 160.356 369.881 159.913 369.699L142.047 362.479H160.576C161.063 362.479 161.453 362.124 161.453 361.686C161.453 361.242 161.063 360.887 160.576 360.887ZM167.173 283.481H112.167C112.004 247.708 111.675 213.595 111.109 185.693L115.833 184.158C116.806 183.842 117.255 182.822 116.799 181.978L114.925 178.518L111.285 178.062L110.945 178.263C110.938 177.918 110.931 177.563 110.92 177.221L123.81 179.283L149.511 167.322C149.711 168.298 149.905 169.292 150.101 170.273C149.923 170.261 149.754 170.228 149.578 170.222C149.48 169.513 149.375 168.774 149.266 167.977L146.782 169.119C146.851 169.618 147.009 170.849 147.076 171.303C142.809 172.406 141.068 175.396 141.731 179.494C142.455 183.957 145.644 186.553 150.539 185.898C151.385 185.782 152.34 186.07 153.083 185.764C158.45 215.11 163.151 248.347 167.173 283.481Z" fill="#CAD6F0"/>
<path d="M76.3795 55.4452C78.7523 58.2011 81.8864 62.1433 84.3037 64.8283C84.3037 64.7897 84.2725 64.4065 84.2659 64.3679C81.6927 59.5111 81.4189 54.198 79.1596 48.7308C79.124 48.6416 77.1808 48.453 77.1452 48.3658C76.2325 47.4613 75.7629 46.9341 75.7629 46.9341L75.6605 55.1572C75.9276 55.1471 76.2014 55.2343 76.3795 55.4452ZM121.372 84.651L120.154 80.7635L119.175 77.6203C110.409 79.2568 96.7755 77.8028 94.4004 76.9551C93.5546 76.6509 91.2307 76.3062 89.6971 74.1992C87.115 73.2116 85.8685 70.7335 85.1317 67.8397C83.6515 66.337 80.907 63.281 75.636 57.1588L75.3622 79.056L75.3311 81.7795C78.9838 85.8049 87.1773 94.8493 94.6074 103.271C108.219 107.226 118.785 105.246 123.831 92.4969L121.372 84.651ZM124.379 362.668L122.972 363.234L112.072 446.903C112.005 461.447 111.936 474.622 111.869 485.867C123.818 484.731 136.637 483.961 150.271 483.727L135.23 362.668H124.379Z" fill="#E24E34"/>
<path d="M85.9766 49.6352C84.0779 54.1047 83.2543 59.6774 84.2893 64.4896C82.7735 61.4173 81.2643 58.2842 79.7551 54.8408C78.8002 55.3965 77.832 55.652 76.699 55.8122C76.3651 55.8609 76.0356 55.9278 75.6906 55.94C75.3924 55.944 75.1163 55.8953 74.8247 55.873C70.5955 55.5465 67.4125 52.1518 67.5816 47.948C67.6907 45.1536 69.2622 42.6917 71.5438 41.2336C72.8526 40.386 74.3996 39.8749 76.049 39.8303C77.4491 39.7979 78.7446 40.1365 79.8954 40.7064C80.5899 41.5115 82.0812 43.369 84.0578 46.4676C84.6544 47.4045 85.2999 48.459 85.9766 49.6352ZM127.294 71.9705C126.582 73.6557 125.74 74.9981 124.736 75.7404C123.652 76.5393 121.656 77.1538 119.174 77.6202C110.408 79.2567 95.5569 78.9951 93.1818 78.1475C92.3249 77.8372 91.1184 76.4015 89.7139 74.2275C96.6453 76.7888 118.522 75.6957 127.294 71.9705ZM104.558 37.192C104.291 37.5571 103.744 37.6524 103.341 37.407C103.201 37.3198 99.677 35.2736 95.2163 37.8349C95.0694 37.918 94.9114 37.9565 94.7533 37.9565C94.4617 37.9565 94.1746 37.8247 94.0099 37.5854C93.7539 37.2143 93.8763 36.7195 94.2837 36.4883C99.7505 33.3492 104.14 35.9773 104.323 36.0889C104.723 36.3322 104.828 36.825 104.558 37.192ZM100.572 45.7761C99.6103 45.9302 98.691 45.3422 98.5218 44.4661C98.3504 43.59 98.9959 42.7525 99.9575 42.5984C100.919 42.4423 101.838 43.0303 102.008 43.9064C102.179 44.7825 101.533 45.62 100.572 45.7761ZM113.355 33.4262C118.813 30.2931 123.209 32.9111 123.392 33.0227C123.793 33.2721 123.902 33.7649 123.628 34.1299C123.361 34.497 122.813 34.5902 122.417 34.3469C122.272 34.2577 118.76 32.2075 114.292 34.7748C114.145 34.8579 113.981 34.8964 113.823 34.8964C113.531 34.8964 113.251 34.7626 113.086 34.5253C112.825 34.1522 112.946 33.6594 113.355 33.4262ZM120.202 42.6248C119.241 42.7809 118.321 42.1928 118.15 41.3168C117.987 40.4346 118.626 39.6032 119.588 39.4491C120.556 39.2929 121.473 39.881 121.638 40.7571C121.809 41.6331 121.17 42.4706 120.202 42.6248ZM112.879 49.4304C112.331 47.6763 110.949 44.6162 109.58 41.9779C109.366 41.5824 109.556 41.1059 109.994 40.9173C110.422 40.7246 110.949 40.895 111.156 41.2945C113.288 45.3766 114.255 47.8223 114.64 49.3128C120.536 48.8646 126.105 47.7817 129.874 45.6139C129.533 43.6732 129.088 41.7102 128.625 39.7533C127.537 35.1844 126.399 30.7433 126.624 27.233C126.751 25.197 125.99 23.1286 124.926 21.271C114.608 22.6419 86.671 24.3108 82.5976 24.5481C81.6783 29.6949 81.2643 35.5778 82.3617 39.8303C82.4329 40.098 82.4952 40.6293 82.5375 41.2884C83.6638 42.7586 85.2643 45.038 87.1563 48.2704C89.1663 48.5361 101.344 50.0732 112.879 49.4304Z" fill="#F35F43"/>
</svg>
